<?xml version="1.0" encoding="iso-8859-1"?>
<!-- Generator: Adobe Illustrator 18.0.0, SVG Export Plug-In . SVG Version: 6.00 Build 0)  -->
<!DOCTYPE svg PUBLIC "-//W3C//DTD SVG 1.1//EN" "http://www.w3.org/Graphics/SVG/1.1/DTD/svg11.dtd">
<svg xmlns="http://www.w3.org/2000/svg" xmlns:xlink="http://www.w3.org/1999/xlink" version="1.1" id="Capa_1" x="0px" y="0px" viewBox="0 0 56 56" style="enable-background:new 0 0 56 56;" xml:space="preserve" width="512px" height="512px">
<g>
	<path d="M55.997,27.515c-0.131-9.414-7.335-17.192-16.492-18.35C39.811,8.633,40,8.024,40,7.367V3c0-0.285-0.122-0.558-0.336-0.747   c-0.213-0.19-0.496-0.28-0.781-0.246l-34,4C4.503,6.052,4.181,6.31,4.056,6.672C3.93,7.034,4.021,7.437,4.293,7.707L10,13.414   v4.316C4.161,22.018,0,30.563,0,38.5c0,1.011,0.076,1.987,0.212,2.936l1.85,0.967c1.383,0.896,3.138,0.748,4.252-0.303   c2.033-1.916,5.341-1.916,7.372,0c1.277,1.203,3.352,1.203,4.629,0c2.031-1.916,5.34-1.916,7.371,0   c1.277,1.203,3.352,1.203,4.629,0c2.031-1.916,5.34-1.916,7.371,0c1.277,1.203,3.352,1.203,4.629,0   c1.822-1.72,4.729-1.905,6.791-0.449l0.606,0.312C49.901,40.852,50,39.698,50,38.5c0-7.938-4.161-16.482-10-20.77v-1.522   c5.418,0.985,9.628,5.426,9.973,10.919c0.018,0.275,0.026,0.555,0.027,0.838c0.003,1.46,1.064,2.744,2.469,2.989   C52.648,30.985,52.826,31,53,31c0.801,0,1.555-0.313,2.121-0.879S56,28.801,56,28L55.997,27.515z M38,4.125v3.242   C38,8.268,37.268,9,36.367,9h-1.734c-0.238,0-0.47,0.026-0.695,0.07c-0.075,0.015-0.144,0.041-0.217,0.06   c-0.147,0.039-0.293,0.079-0.433,0.135c-0.082,0.033-0.158,0.075-0.237,0.113c-0.122,0.06-0.242,0.121-0.356,0.194   c-0.078,0.049-0.15,0.104-0.223,0.159c-0.105,0.078-0.206,0.16-0.302,0.249c-0.068,0.063-0.132,0.128-0.195,0.196   c-0.089,0.096-0.171,0.197-0.249,0.302c-0.055,0.073-0.108,0.146-0.157,0.224c-0.072,0.114-0.134,0.234-0.194,0.356   c-0.038,0.079-0.079,0.155-0.112,0.237c-0.055,0.139-0.096,0.283-0.134,0.43c-0.019,0.074-0.045,0.145-0.06,0.22   c-0.004,0.019-0.011,0.036-0.015,0.055H11.414L7.166,7.752L38,4.125z M18,37h-7c-0.553,0-1-0.447-1-1s0.447-1,1-1h7   c0.553,0,1,0.447,1,1S18.553,37,18,37z M18,33h-5c-0.553,0-1-0.447-1-1s0.447-1,1-1h5c0.553,0,1,0.447,1,1S18.553,33,18,33z M18,29   h-7c-0.553,0-1-0.447-1-1s0.447-1,1-1h7c0.553,0,1,0.447,1,1S18.553,29,18,29z M18,25h-5c-0.553,0-1-0.447-1-1s0.447-1,1-1h5   c0.553,0,1,0.447,1,1S18.553,25,18,25z M38,17H12v-3h19v1v1h1h5.73c0.091,0,0.179,0.011,0.27,0.013V17z" fill="green"/>
	<path d="M47.993,43.314c-1.301-0.949-3.152-0.847-4.308,0.241c-2.031,1.916-5.34,1.916-7.371,0c-1.277-1.203-3.352-1.203-4.629,0   c-2.031,1.916-5.34,1.916-7.371,0c-1.277-1.203-3.352-1.203-4.629,0c-2.031,1.916-5.34,1.916-7.371,0   c-1.277-1.203-3.352-1.203-4.629,0c-1.774,1.675-4.565,1.917-6.632,0.572L0.753,43.97c1.185,4.082,3.762,7.444,7.632,9.877   C8.544,53.947,8.729,54,8.917,54h32.166c0.188,0,0.373-0.053,0.532-0.153c3.87-2.433,6.446-5.794,7.632-9.875l-1.121-0.576   C48.08,43.371,48.035,43.345,47.993,43.314z" fill="green"/>
</g>
<g>
</g>
<g>
</g>
<g>
</g>
<g>
</g>
<g>
</g>
<g>
</g>
<g>
</g>
<g>
</g>
<g>
</g>
<g>
</g>
<g>
</g>
<g>
</g>
<g>
</g>
<g>
</g>
<g>
</g>
</svg>
