<?xml version="1.0" encoding="iso-8859-1"?>
<!-- Generator: Adobe Illustrator 18.0.0, SVG Export Plug-In . SVG Version: 6.00 Build 0)  -->
<!DOCTYPE svg PUBLIC "-//W3C//DTD SVG 1.1//EN" "http://www.w3.org/Graphics/SVG/1.1/DTD/svg11.dtd">
<svg xmlns="http://www.w3.org/2000/svg" xmlns:xlink="http://www.w3.org/1999/xlink" version="1.1" id="Capa_1" x="0px" y="0px" viewBox="0 0 46.951 46.951" style="enable-background:new 0 0 46.951 46.951;" xml:space="preserve" width="512px" height="512px">
<g>
	<path d="M38.976,5.122h-0.415V4.415c0-1.492-1.212-2.706-2.635-2.706c-0.001,0-0.002,0-0.004,0L11.098,0   C9.604,0,8.39,1.215,8.39,2.707v2.415H7.976c-1.654,0-3,1.346-3,3v3.829c0,1.654,1.346,3,3,3H8.07l2.904,29.293   c0,1.492,1.214,2.707,2.708,2.707h19.634c0.373,0,0.729-0.076,1.053-0.212c0.971-0.407,1.653-1.352,1.65-2.397l2.909-29.392h0.049   c1.654,0,3-1.346,3-3V8.122C41.976,6.468,40.63,5.122,38.976,5.122z M10.39,2.707c0-0.39,0.317-0.707,0.639-0.709l24.825,1.709   c0.39,0,0.708,0.317,0.708,0.708v0.707H10.39V2.707z M36.103,22.904l-5.369,0.958c-1.817-2.121-4.417-3.326-7.225-3.326   c-2.809,0-5.409,1.205-7.226,3.327l-5.389-0.96l-0.811-7.952h26.832L36.103,22.904z M35.928,24.967l-0.776,7.856l-5.252-0.967   l-0.372,0.494c-1.442,1.917-3.636,3.017-6.018,3.017c-2.383,0-4.577-1.1-6.019-3.017l-0.372-0.493l-5.27,0.967l-0.778-7.857   l6.05,1.076l0.37-0.49c1.442-1.917,3.636-3.017,6.019-3.017c2.382,0,4.576,1.1,6.018,3.017l0.37,0.491L35.928,24.967z    M33.315,44.951H13.681c-0.096,0-0.188-0.02-0.272-0.058c-0.253-0.114-0.436-0.386-0.44-0.748l-0.013-0.13l-0.897-9.198   l4.226-0.775c1.817,2.12,4.416,3.324,7.224,3.324c2.807,0,5.406-1.204,7.223-3.323l4.207,0.774l-0.916,9.427   C34.022,44.627,33.699,44.951,33.315,44.951z M39.976,11.951c0,0.552-0.449,1-1,1h-31c-0.551,0-1-0.448-1-1V8.122   c0-0.552,0.449-1,1-1H8.39h30.171h0.415c0.551,0,1,0.448,1,1V11.951z" fill="#00FF00"/>
	<path d="M23.476,24c-3.033,0-5.5,2.243-5.5,5s2.467,5,5.5,5s5.5-2.243,5.5-5S26.508,24,23.476,24z M23.476,32   c-1.93,0-3.5-1.346-3.5-3s1.57-3,3.5-3s3.5,1.346,3.5,3S25.405,32,23.476,32z" fill="#00FF00"/>
</g>
<g>
</g>
<g>
</g>
<g>
</g>
<g>
</g>
<g>
</g>
<g>
</g>
<g>
</g>
<g>
</g>
<g>
</g>
<g>
</g>
<g>
</g>
<g>
</g>
<g>
</g>
<g>
</g>
<g>
</g>
</svg>
