<?xml version="1.0" encoding="iso-8859-1"?>
<!-- Generator: Adobe Illustrator 19.0.0, SVG Export Plug-In . SVG Version: 6.00 Build 0)  -->
<svg xmlns="http://www.w3.org/2000/svg" xmlns:xlink="http://www.w3.org/1999/xlink" version="1.1" id="Capa_1" x="0px" y="0px" viewBox="0 0 488.97 488.97" style="enable-background:new 0 0 488.97 488.97;" xml:space="preserve" width="512px" height="512px">
<g>
	<g>
		<g>
			<path d="M169.169,338.919c-42.3-70.7-42.4-144.2-38.1-178.4c-99.1,46.3-158.4,145.7-118.5,234.8     C59.569,399.919,125.469,385.919,169.169,338.919z" fill="blue"/>
			<path d="M180.069,356.019c-38.6,40.2-104.9,62.9-155.5,59.9c46.2,65.5,169.1,94.3,279.8,31.1     C256.969,435.719,212.269,402.719,180.069,356.019z" fill="blue"/>
			<path d="M295.869,209.219c-66.2-72-71.7-140.7-62.6-185.8c-68.4,38.5-101.8,137.2-75,237.8c29.9,115,136.2,202,235.9,158.2     C397.269,387.119,393.169,314.619,295.869,209.219z" fill="blue"/>
			<path d="M480.069,176.519c-30.4-114.6-131.9-193.8-224.3-163.2c-13.5,43.1-11.6,112.4,55.2,183c30.3,35,105.2,117.9,103.8,211.8     C476.169,365.719,504.869,272.119,480.069,176.519z" fill="blue"/>
		</g>
	</g>
</g>
<g>
</g>
<g>
</g>
<g>
</g>
<g>
</g>
<g>
</g>
<g>
</g>
<g>
</g>
<g>
</g>
<g>
</g>
<g>
</g>
<g>
</g>
<g>
</g>
<g>
</g>
<g>
</g>
<g>
</g>
</svg>
