<?xml version="1.0" encoding="iso-8859-1"?>
<!-- Generator: Adobe Illustrator 16.0.0, SVG Export Plug-In . SVG Version: 6.00 Build 0)  -->
<!DOCTYPE svg PUBLIC "-//W3C//DTD SVG 1.1//EN" "http://www.w3.org/Graphics/SVG/1.1/DTD/svg11.dtd">
<svg xmlns="http://www.w3.org/2000/svg" xmlns:xlink="http://www.w3.org/1999/xlink" version="1.1" id="Capa_1" x="0px" y="0px" width="512px" height="512px" viewBox="0 0 45.002 45.002" style="enable-background:new 0 0 45.002 45.002;" xml:space="preserve">
<g>
	<g>
		<g>
			<path d="M37.16,32.145c1.905-0.815,4.081-2.336,4.651-5.125c0.274-1.344,0.014-2.631-0.719-3.525     c-0.658-0.809-1.654-1.253-2.808-1.253c-0.924,0-1.592-0.031-2.053-0.063c0,0,0.532-4.069,0.525-4.089     c-0.342-2.868-7.332-4.367-14.257-4.367S8.586,15.221,8.243,18.088c-0.007,0.02,1.912,13.511,1.912,13.511     C3.77,32.912,0.12,35.126,0.12,37.72c0,4.729,11.532,7.282,22.381,7.282c10.85,0,22.381-2.553,22.381-7.282     C44.884,35.454,42.104,33.482,37.16,32.145z M22.503,18.573c4.019,0,7.743,0.518,10.167,1.357     c-2.122,0.722-5.556,1.341-10.167,1.341c-4.612,0-8.045-0.619-10.167-1.341C14.76,19.091,18.487,18.573,22.503,18.573z      M32.485,36.611c-0.246,0.668-3.892,1.918-9.982,1.918s-9.736-1.25-9.979-1.892c0-0.026-1.584-10.825-2.327-15.889     c2.625,1.408,7.482,2.138,12.306,2.138c4.825,0,9.685-0.729,12.308-2.139L32.485,36.611z M35.998,23.779     c0.507,0.039,1.257,0.078,2.289,0.078c0.667,0,1.204,0.226,1.553,0.653c0.425,0.521,0.563,1.315,0.386,2.185     c-0.59,2.884-3.655,4.069-5.317,4.508L35.998,23.779z" fill="#0000FF"/>
			<path d="M16.593,9.176c-0.579,0.482-1.371,1.142-1.371,2.422c0,0.446,0.362,0.809,0.809,0.809c0.446,0,0.809-0.362,0.809-0.809     c0-0.501,0.257-0.734,0.788-1.177c0.578-0.483,1.37-1.145,1.37-2.422c0-1.276-0.792-1.937-1.37-2.419     c-0.531-0.443-0.788-0.679-0.788-1.178c0-0.496,0.256-0.731,0.788-1.174c0.578-0.482,1.371-1.14,1.371-2.417     C18.999,0.365,18.636,0,18.19,0c-0.447,0-0.809,0.364-0.809,0.811c0,0.496-0.256,0.732-0.788,1.174     c-0.579,0.482-1.371,1.141-1.371,2.417c0,1.278,0.792,1.938,1.371,2.42c0.531,0.443,0.788,0.679,0.788,1.177     C17.38,8.499,17.124,8.733,16.593,9.176z" fill="#0000FF"/>
			<path d="M21.985,9.176c-0.578,0.482-1.369,1.142-1.369,2.422c0,0.446,0.362,0.809,0.809,0.809c0.446,0,0.809-0.362,0.809-0.809     c0-0.501,0.255-0.734,0.788-1.177c0.577-0.483,1.37-1.145,1.37-2.422c0-1.276-0.793-1.937-1.37-2.419     c-0.533-0.443-0.788-0.679-0.788-1.178c0-0.496,0.254-0.731,0.787-1.174c0.578-0.482,1.369-1.14,1.369-2.417     C24.39,0.365,24.029,0,23.581,0c-0.446,0-0.809,0.364-0.809,0.811c0,0.496-0.254,0.732-0.787,1.174     c-0.578,0.482-1.369,1.141-1.369,2.417c0,1.278,0.792,1.938,1.369,2.42c0.533,0.443,0.787,0.679,0.787,1.177     C22.772,8.499,22.518,8.733,21.985,9.176z" fill="#0000FF"/>
			<path d="M27.378,9.176c-0.578,0.482-1.371,1.142-1.371,2.422c0,0.446,0.363,0.809,0.812,0.809c0.447,0,0.809-0.362,0.809-0.809     c0-0.501,0.257-0.734,0.788-1.177c0.579-0.483,1.37-1.145,1.37-2.422c0-1.276-0.793-1.937-1.37-2.419     c-0.531-0.443-0.788-0.679-0.788-1.178c0-0.496,0.256-0.731,0.788-1.174c0.579-0.482,1.371-1.14,1.371-2.417     C29.786,0.365,29.424,0,28.976,0c-0.444,0-0.809,0.364-0.809,0.811c0,0.496-0.256,0.732-0.788,1.174     c-0.578,0.482-1.371,1.141-1.371,2.417c0,1.278,0.793,1.938,1.371,2.42c0.531,0.443,0.788,0.679,0.788,1.177     C28.166,8.499,27.91,8.733,27.378,9.176z" fill="#0000FF"/>
		</g>
	</g>
</g>
<g>
</g>
<g>
</g>
<g>
</g>
<g>
</g>
<g>
</g>
<g>
</g>
<g>
</g>
<g>
</g>
<g>
</g>
<g>
</g>
<g>
</g>
<g>
</g>
<g>
</g>
<g>
</g>
<g>
</g>
</svg>
