<?xml version="1.0" encoding="utf-8"?>
<!-- Generator: Adobe Illustrator 19.2.1, SVG Export Plug-In . SVG Version: 6.00 Build 0)  -->
<!DOCTYPE svg PUBLIC "-//W3C//DTD SVG 1.1//EN" "http://www.w3.org/Graphics/SVG/1.1/DTD/svg11.dtd">
<svg version="1.1" id="Layer_1" xmlns="http://www.w3.org/2000/svg" xmlns:xlink="http://www.w3.org/1999/xlink" x="0px" y="0px"
	 width="512px" height="512px" viewBox="0 0 92 92" enable-background="new 0 0 92 92" xml:space="preserve">
<path fill="blue" d="M13,24h24V8H13V24z M14.5,9.5h21v13h-21V9.5z M91,31V11c0-5.5-4.5-10-10-10H11C5.5,1,1,5.5,1,11v20h5v44H1v6
	c0,5.5,4.5,10,10,10h70c5.5,0,10-4.5,10-10v-6h-5V31H91z M89.5,76.5V81c0,4.7-3.8,8.5-8.5,8.5H11c-4.7,0-8.5-3.8-8.5-8.5v-4.5H6h80
	H89.5z M35.5,31h21v6.5c0,2.5-2,4.5-4.5,4.5H40c-2.5,0-4.5-2-4.5-4.5V31z M40,43.5h12c3.1,0,5.7-2.4,6-5.5h5.4
	c0.5,0.9,1.5,1.5,2.6,1.5h12c1.7,0,3-1.3,3-3s-1.3-3-3-3H66c-1.1,0-2.1,0.6-2.6,1.5H58v-4h26.5v44H58.8c3.8-1.7,6.7-5.3,7.1-9.6
	l2.6-1.1c5.7-2.7,9-3.6,9-8c0-3.4-3.1-6.2-7-6.2H66h-1.5H26v14c0,4.9,3,9.2,7.2,11H7.5V31H34v6.5C34,40.8,36.7,43.5,40,43.5z
	 M64.5,36.5c0-0.8,0.7-1.5,1.5-1.5h12c0.8,0,1.5,0.7,1.5,1.5S78.8,38,78,38H66C65.2,38,64.5,37.3,64.5,36.5z M38,74.5
	c-5.8,0-10.5-4.7-10.5-10.5V51.5h37V64c0,5.8-4.7,10.5-10.5,10.5H38z M66,63.7V51.5h4.5c3,0,5.5,2.1,5.5,4.7c0,2.8-1.5,3.6-6.3,5.8
	c-0.6,0.3-1.2,0.5-1.8,0.8L66,63.7z M58,29.5H34H6H2.5V11c0-4.7,3.8-8.5,8.5-8.5h70c4.7,0,8.5,3.8,8.5,8.5v18.5H86H58z M48,11
	c-2.8,0-5,2.2-5,5s2.2,5,5,5s5-2.2,5-5S50.8,11,48,11z M48,19.5c-1.9,0-3.5-1.6-3.5-3.5s1.6-3.5,3.5-3.5c1.9,0,3.5,1.6,3.5,3.5
	S49.9,19.5,48,19.5z M61,11c-2.8,0-5,2.2-5,5s2.2,5,5,5s5-2.2,5-5S63.8,11,61,11z M61,19.5c-1.9,0-3.5-1.6-3.5-3.5s1.6-3.5,3.5-3.5
	c1.9,0,3.5,1.6,3.5,3.5S62.9,19.5,61,19.5z M74,11c-2.8,0-5,2.2-5,5s2.2,5,5,5s5-2.2,5-5S76.8,11,74,11z M74,19.5
	c-1.9,0-3.5-1.6-3.5-3.5s1.6-3.5,3.5-3.5c1.9,0,3.5,1.6,3.5,3.5S75.9,19.5,74,19.5z"/>
</svg>
