<?xml version="1.0" encoding="iso-8859-1"?>
<!-- Generator: Adobe Illustrator 19.0.0, SVG Export Plug-In . SVG Version: 6.00 Build 0)  -->
<svg xmlns="http://www.w3.org/2000/svg" xmlns:xlink="http://www.w3.org/1999/xlink" version="1.1" id="Layer_1" x="0px" y="0px" viewBox="0 0 463 463" style="enable-background:new 0 0 463 463;" xml:space="preserve" width="512px" height="512px">
<g transform="translate(0 -540.36)">
	<g>
		<g>
			<path d="M214.7,580.26h33.7c4.1,0,7.5-3.4,7.5-7.5s-3.4-7.5-7.5-7.5h-33.7c-4.1,0-7.5,3.4-7.5,7.5S210.6,580.26,214.7,580.26z" fill="red"/>
			<path d="M446,719.66l-98.7-175.5c-1.3-2.4-3.8-3.8-6.5-3.8h-1.3h-216h-1.3c-2.7,0-5.2,1.5-6.5,3.8L17,719.66     c-0.6,1.1-1,2.4-1,3.7v272.5c0,4.1,3.4,7.5,7.5,7.5h416c4.1,0,7.5-3.4,7.5-7.5v-272.5C447,722.06,446.7,720.76,446,719.66z      M330.4,555.36l-7,34.8H139.6l-7-34.8H330.4z M432,988.36H31v-263.1l88.7-157.8l6.3,31.6c0.7,3.5,3.8,6,7.4,6H224v233.9h-24.4     c-8.6,0-17.5,6.5-17.5,17.5v62.2c0,10.9,8.9,17.5,17.5,17.5h62.5c10.9,0,18.7-7.3,18.7-17.5v-62.2c0-10.1-7.9-17.5-18.7-17.5H239     v-233.9h90.6c3.6,0,6.6-2.5,7.4-6l6.3-31.6l88.7,157.8V988.36z M262.1,854.06c1.4,0,3.7,0.3,3.7,2.5v62.2c0,2.1-2.3,2.5-3.7,2.5     h-62.5c-0.1,0-2.5,0-2.5-2.5v-62.2c0-2.4,2.4-2.5,2.5-2.5H262.1z" fill="red"/>
			<path d="M341.5,731.96c-13-1.3-31.7,1-45.1,11.4c-7,5-23,18.4-23,35.9c0,14.8,12.2,29.2,23.5,36.2c0.2,0.1,0.4,0.2,0.6,0.3     c7.3,3.6,15.1,5,22.5,5c9.1,0,17.7-2.1,23.9-4.9c0.1,0,0.2-0.1,0.3-0.1c21.6-10.8,41.2-48.8,43.3-53.1c1.6-3.1,0.7-7.1-2.2-9.3v0     C382.6,751.36,358.2,733.46,341.5,731.96z M290.2,786.66c-1.2-2.6-1.9-5.2-1.9-7.4c0-8.6,8.7-17.9,16.9-23.7     c0.1-0.1,0.2-0.1,0.2-0.2c10-7.8,24.9-9.4,34.6-8.4h0.1c5.8,0.5,15,5,23.2,9.9c-10.9,1.5-29.1,4.4-38.9,7.9     c-0.2,0.1-0.4,0.1-0.5,0.2C313.5,769.66,298.2,780.66,290.2,786.66z M337.6,802.36L337.6,802.36c-8.6,3.7-22.5,5.4-33.1,0.2     c-1.8-1.1-3.5-2.5-5.1-3.9c7.5-5.6,21.4-15.7,30.5-19.9c8.5-3,24.9-5.6,35.2-7C357.5,783.76,347.1,797.56,337.6,802.36z" fill="red"/>
			<path d="M162.7,708.46L162.7,708.46c-11.6-8.8-27.5-12.8-44.9-11.3c-16.7,1.4-41.1,19.3-43.8,21.4c-2.9,2.2-3.8,6.1-2.2,9.4     c2.2,4.3,21.7,42.4,43.3,53.1c0.1,0.1,0.2,0.1,0.3,0.1c6.2,2.7,14.7,4.9,23.9,4.9c7.4,0,15.2-1.4,22.5-5c0.2-0.1,0.4-0.2,0.6-0.3     c11.3-7.1,23.5-21.4,23.5-36.2C185.9,728.76,174,715.56,162.7,708.46z M154.7,767.66c-10.6,5.3-24.5,3.6-33.1-0.1v0     c-9.5-4.8-20-18.8-27.6-30.8c9.9,1.4,26.9,4.1,36.6,7.2c9,4.2,22.2,14.2,29.3,19.7C158.3,765.16,156.5,766.56,154.7,767.66z      M169,751.76c-7.7-6.1-22.2-16.9-32.5-21.6c-0.2-0.1-0.5-0.2-0.7-0.3c-10.9-3.6-29.3-6.5-39.8-8c8.2-4.8,17.3-9.2,23.1-9.7v0     c8-0.7,23.1-0.6,34.7,8.4c0.2,0.2,0.4,0.3,0.6,0.4c7.6,4.7,16.5,13.7,16.5,23.5C170.9,746.66,170.2,749.16,169,751.76z" fill="red"/>
		</g>
	</g>
</g>
<g>
</g>
<g>
</g>
<g>
</g>
<g>
</g>
<g>
</g>
<g>
</g>
<g>
</g>
<g>
</g>
<g>
</g>
<g>
</g>
<g>
</g>
<g>
</g>
<g>
</g>
<g>
</g>
<g>
</g>
</svg>
