<?xml version="1.0" encoding="iso-8859-1"?>
<svg xmlns="http://www.w3.org/2000/svg" xmlns:xlink="http://www.w3.org/1999/xlink" version="1.1" viewBox="0 0 409.221 409.221" enable-background="new 0 0 409.221 409.221" width="512px" height="512px">
  <path d="m122.173,100.642h-64.228c-14.407,0-26.128-11.722-26.128-26.129s11.721-26.129 26.128-26.129h113.462c3.322,0 6.128-2.807 6.128-6.128s-2.806-6.128-6.128-6.128h-70.444c-14.407,0-26.127-11.721-26.127-26.128 0-5.522 4.477-10 10-10s10,4.478 10,10c0,3.321 2.806,6.128 6.127,6.128h70.444c14.407,0 26.128,11.721 26.128,26.128s-11.721,26.128-26.128,26.128h-113.462c-3.322,0-6.128,2.807-6.128,6.129s2.807,6.129 6.128,6.129h64.229c6,0 11.867,2.1 16.523,5.911 4.273,3.498 4.901,9.799 1.402,14.072-1.977,2.414-4.849,3.665-7.743,3.665-2.229,0-4.47-0.74-6.329-2.263-0.773-0.631-2.068-1.385-3.854-1.385zm255.037,113.153l-28.74,143.7c-0.935,4.675-5.039,8.039-9.806,8.039h-39.778l-7.129,35.647c-0.935,4.675-5.039,8.039-9.806,8.039h-137.954c-4.767,0-8.871-3.364-9.806-8.039l-45.983-229.92c-0.588-2.938 0.173-5.984 2.072-8.301 1.899-2.317 4.737-3.66 7.733-3.66h6.135c0.135-8.877 2.467-16.232 7.037-22.294 10.863-14.409 31.365-16.847 51.192-19.203 32.619-3.878 52.614-8.257 55.236-36.311 0.48-5.14 4.794-9.069 9.957-9.069 50.313,0 86.634,43.275 92.609,86.877h7.754c2.996,0 5.834,1.343 7.733,3.66 1.899,2.316 2.66,5.363 2.072,8.301l-6.114,30.573h35.778c2.996,0 5.834,1.343 7.733,3.66 1.902,2.317 2.663,5.363 2.075,8.301zm-253.06-54.495h15.07c0.129-0.002 0.258-0.002 0.387,0h160.323c-5.439-30.921-30.261-61.826-63.932-66.318-8.613,37.235-44.511,41.501-71.26,44.681-16.382,1.948-31.856,3.787-37.583,11.383-1.892,2.51-2.89,5.898-3.005,10.254zm185.426,50.803c0.028-0.161 0.06-0.321 0.096-0.479l6.065-30.323h-164.136l33.86,169.307c1.083,5.415-2.429,10.684-7.845,11.767-5.409,1.089-10.684-2.429-11.767-7.845l-34.644-173.23h-16.101c-0.117,0.002-0.232,0.002-0.348,0h-4.544l41.984,209.921h121.558l7.075-35.374c0.032-0.191 0.07-0.38 0.113-0.566l28.634-143.178zm45.63,11.731h-27.58l-24.74,123.7h27.58l24.74-123.7z" fill="#FF0000"/>
</svg>
