<?xml version="1.0" encoding="iso-8859-1"?>
<!-- Generator: Adobe Illustrator 18.0.0, SVG Export Plug-In . SVG Version: 6.00 Build 0)  -->
<!DOCTYPE svg PUBLIC "-//W3C//DTD SVG 1.1//EN" "http://www.w3.org/Graphics/SVG/1.1/DTD/svg11.dtd">
<svg xmlns="http://www.w3.org/2000/svg" xmlns:xlink="http://www.w3.org/1999/xlink" version="1.1" id="Capa_1" x="0px" y="0px" viewBox="0 0 55.231 55.231" style="enable-background:new 0 0 55.231 55.231;" xml:space="preserve" width="512px" height="512px">
<g>
	<path d="M41.485,21.615l-2.055,2.877c-2.202-2.086-4.687-3.676-7.367-4.669c-0.07-0.026-0.138-0.057-0.208-0.082   c-0.36-0.129-0.725-0.238-1.092-0.345c-0.247-0.073-0.494-0.144-0.743-0.206c-0.302-0.075-0.605-0.144-0.911-0.204   c-0.049-0.01-0.097-0.023-0.146-0.033C29.601,18.176,30,17.197,30,16.115c0-2.481-2.019-4.5-4.5-4.5s-4.5,2.019-4.5,4.5   c0,1.081,0.399,2.061,1.036,2.838c-0.049,0.009-0.097,0.023-0.146,0.033c-0.306,0.06-0.609,0.129-0.911,0.204   c-0.249,0.063-0.497,0.134-0.744,0.207c-0.366,0.107-0.73,0.216-1.089,0.344c-0.073,0.026-0.144,0.058-0.217,0.085   c-0.788,0.292-1.556,0.639-2.309,1.031c-1.795-2.039-4.392-3.242-7.12-3.242c-5.238,0-9.5,4.262-9.5,9.5   c0,3.349,1.728,6.354,4.546,8.075c-0.846,2.164-1.512,4.482-1.949,6.94c-0.424,2.383,0.176,4.822,1.604,6.526   c1.059,1.263,2.453,1.959,3.927,1.959h34.746c1.474,0,2.868-0.696,3.927-1.959c1.428-1.704,2.027-4.144,1.604-6.526   c-0.776-4.364-2.246-8.309-4.236-11.671l6.878-8.843H41.485z M28.784,20.959c0.321,0.065,0.639,0.141,0.957,0.225   c0.277,0.073,0.554,0.148,0.827,0.235c0.32,0.102,0.637,0.215,0.953,0.336c0.108,0.041,0.215,0.086,0.322,0.129   c1.125,0.458,2.222,1.033,3.278,1.731H15.924c0.294-0.194,0.584-0.396,0.885-0.572c0.045-0.026,0.088-0.056,0.133-0.081   l0.108-0.062c0.688-0.388,1.391-0.724,2.104-1.015c0.109-0.044,0.217-0.09,0.327-0.132c0.315-0.121,0.632-0.233,0.951-0.335   c0.274-0.087,0.552-0.162,0.83-0.235c0.317-0.084,0.635-0.159,0.955-0.224c0.38-0.076,0.762-0.144,1.147-0.193   c0.172-0.023,0.344-0.042,0.516-0.06c0.536-0.052,1.075-0.091,1.62-0.091s1.084,0.038,1.62,0.091   c0.172,0.017,0.344,0.037,0.516,0.06C28.022,20.815,28.404,20.883,28.784,20.959z M25.5,13.615c1.379,0,2.5,1.121,2.5,2.5   s-1.121,2.5-2.5,2.5s-2.5-1.121-2.5-2.5S24.121,13.615,25.5,13.615z M2,27.115c0-4.136,3.364-7.5,7.5-7.5   c2.023,0,3.96,0.833,5.363,2.271c-3.936,2.563-7.245,6.517-9.525,11.46C3.257,31.966,2,29.661,2,27.115z M45.267,47.371   c-0.672,0.803-1.522,1.244-2.394,1.244H8.127c-0.871,0-1.722-0.441-2.394-1.244c-1.036-1.236-1.484-3.111-1.168-4.892   c0.411-2.31,1.033-4.489,1.822-6.52l0.342-0.806c1.65-3.883,3.999-7.204,6.783-9.686c0.184,0.086,0.38,0.147,0.592,0.147h22.791   c0.232,0,0.446-0.071,0.644-0.173c0.246,0.219,0.48,0.458,0.719,0.689l-0.003,0.004l0.574,0.599c1.19,1.244,2.287,2.66,3.257,4.21   l0.63,1.008c1.731,3.055,3.02,6.608,3.717,10.528C46.751,44.26,46.303,46.135,45.267,47.371z M40.848,25.948l1.667-2.333h4.44   l-3.932,5.056C42.347,27.697,41.613,26.799,40.848,25.948z" fill="red"/>
	<path d="M44.999,19.615c0.317,0,0.629-0.15,0.823-0.431l0.569-0.822c0.314-0.454,0.201-1.077-0.253-1.392   c-0.456-0.314-1.078-0.201-1.392,0.253l-0.569,0.822c-0.314,0.454-0.201,1.077,0.253,1.392   C44.604,19.558,44.803,19.615,44.999,19.615z" fill="red"/>
	<path d="M47.383,16.173c0.317,0,0.629-0.15,0.823-0.431l1.209-1.747c0.314-0.454,0.201-1.077-0.253-1.392   c-0.456-0.315-1.077-0.2-1.392,0.253l-1.209,1.747c-0.314,0.454-0.201,1.077,0.253,1.392   C46.988,16.115,47.187,16.173,47.383,16.173z" fill="red"/>
	<path d="M50.406,11.805c0.317,0,0.629-0.15,0.823-0.431l1.209-1.747c0.314-0.454,0.201-1.077-0.253-1.392   c-0.455-0.314-1.077-0.201-1.392,0.253l-1.209,1.747c-0.314,0.454-0.201,1.077,0.253,1.392   C50.012,11.747,50.21,11.805,50.406,11.805z" fill="red"/>
	<path d="M53.43,7.438c0.317,0,0.629-0.15,0.823-0.431l0.569-0.822c0.314-0.454,0.201-1.077-0.253-1.392   c-0.456-0.314-1.078-0.201-1.392,0.253l-0.569,0.822c-0.314,0.454-0.201,1.077,0.253,1.392C53.035,7.38,53.233,7.438,53.43,7.438z" fill="red"/>
	<path d="M48.747,17.224l-0.569,0.822c-0.314,0.454-0.201,1.077,0.253,1.392c0.174,0.12,0.372,0.178,0.568,0.178   c0.317,0,0.629-0.15,0.823-0.431l0.569-0.822c0.314-0.454,0.201-1.077-0.253-1.392C49.684,16.656,49.062,16.77,48.747,17.224z" fill="red"/>
	<path d="M51.305,13.53l-1.023,1.478c-0.314,0.454-0.201,1.077,0.253,1.392c0.174,0.12,0.372,0.178,0.568,0.178   c0.317,0,0.629-0.15,0.823-0.431l1.023-1.478c0.314-0.454,0.201-1.077-0.253-1.392C52.24,12.962,51.618,13.075,51.305,13.53z" fill="red"/>
	<path d="M54.8,10.238c-0.455-0.315-1.077-0.201-1.392,0.253l-0.569,0.822c-0.314,0.454-0.201,1.077,0.253,1.392   c0.174,0.12,0.372,0.178,0.568,0.178c0.317,0,0.629-0.15,0.823-0.431l0.569-0.822C55.367,11.175,55.254,10.552,54.8,10.238z" fill="red"/>
</g>
<g>
</g>
<g>
</g>
<g>
</g>
<g>
</g>
<g>
</g>
<g>
</g>
<g>
</g>
<g>
</g>
<g>
</g>
<g>
</g>
<g>
</g>
<g>
</g>
<g>
</g>
<g>
</g>
<g>
</g>
</svg>
