<?xml version="1.0" encoding="UTF-8" standalone="no"?>
<svg width="152px" height="24px" viewBox="0 0 152 24" version="1.1" xmlns="http://www.w3.org/2000/svg" xmlns:xlink="http://www.w3.org/1999/xlink" xmlns:sketch="http://www.bohemiancoding.com/sketch/ns">
    <!-- Generator: Sketch 3.5.1 (25234) - http://www.bohemiancoding.com/sketch -->
    <title>TT_lockup_horizontal_ttOrange Copy</title>
    <desc>Created with Sketch.</desc>
    <defs></defs>
    <g id="------Branding" stroke="none" stroke-width="1" fill="none" fill-rule="evenodd" sketch:type="MSPage">
        <g id="Typography" sketch:type="MSArtboardGroup" transform="translate(-469.000000, -478.000000)" fill="#F27802">
            <g id="Horizontal" sketch:type="MSLayerGroup" transform="translate(272.000000, 424.000000)">
                <g id="Thumbtack-Orange" transform="translate(0.000000, 54.000000)" sketch:type="MSShapeGroup">
                    <path d="M297.790801,11.678637 C297.417434,11.2330838 296.87998,11.0074258 296.192693,11.0074258 C294.721973,11.0074258 292.994962,12.3204277 292.539703,14.8296597 C292.250958,16.4177581 292.40352,17.622784 292.98101,18.3140132 C293.351344,18.7583532 293.886675,18.9834046 294.571231,18.9834046 C295.68102,18.9834046 297.634296,18.4653618 298.250306,14.9946569 C298.516,13.5008859 298.356766,12.3540944 297.790801,11.678637 L297.790801,11.678637 Z M300.134429,9.88793163 C301.111977,11.0507982 301.41801,13.0250024 300.995205,15.4462762 C300.370096,19.0301134 297.787464,21.5329759 294.714997,21.5329759 C293.490864,21.5329759 292.493601,21.0792335 291.751113,20.1841842 L291.625849,20.0328356 L291.486026,20.8247617 C291.44144,21.0722575 291.252178,21.238468 291.015602,21.238468 L289.022593,21.238468 C288.934938,21.238468 288.84789,21.1969154 288.789655,21.1277621 C288.730814,21.057699 288.707157,20.9673144 288.723535,20.8735936 L288.865178,20.0680188 L288.67804,20.2145145 C287.910378,20.8174824 286.727493,21.536009 285.453011,21.536009 C284.584045,21.536009 283.955297,21.3054981 283.583143,20.852059 C282.875535,19.9885532 283.174593,18.493569 283.393275,17.4019788 C283.427245,17.2312188 283.459092,17.0722876 283.483963,16.9291283 C283.581323,16.3752956 283.671708,15.8709015 283.753903,15.4123062 C284.22918,12.7662842 284.425721,11.6707511 284.05751,11.2306573 C283.932246,11.0811286 283.74632,11.0110654 283.472437,11.0110654 C281.618645,11.0110654 279.285632,15.9770578 277.939267,20.8826927 C277.875876,21.1119903 277.698444,21.238468 277.439726,21.238468 L275.604738,21.238468 C275.51678,21.238468 275.429125,21.1966121 275.370587,21.1271555 C275.31205,21.0570924 275.288999,20.9661012 275.306287,20.8708639 C275.350266,20.6260977 275.642348,18.9521643 275.642348,18.9521643 C275.752143,18.3316048 275.865276,17.724694 275.974768,17.140531 C276.515256,14.2467099 276.942307,11.9610128 276.350865,11.2485523 C276.219838,11.0911376 276.043315,11.0110654 275.825846,11.0110654 C274.433075,11.0110654 272.155871,15.0768522 270.287823,20.8981612 C270.207448,21.1492967 269.97906,21.238468 269.8083,21.238468 L267.950261,21.238468 C267.866852,21.238468 267.781321,21.1953989 267.721267,21.1238192 C267.665762,21.0573957 267.642104,20.975807 267.656056,20.8993744 C267.666975,20.8378037 267.794666,20.0843972 267.794666,20.0843972 L267.612381,20.2211872 C266.414331,21.1180564 265.402206,21.536009 264.427085,21.536009 C263.558423,21.536009 262.930281,21.3112609 262.558733,20.869044 C262.133502,20.3625268 262.023706,19.5630181 262.223583,18.425629 L262.435895,17.2239395 L262.268472,17.1608523 C261.134722,19.0389092 259.328245,21.536009 256.739851,21.536009 C255.631276,21.536009 254.780509,21.0067439 254.405322,20.0834873 L254.360736,19.973388 L254.266106,20.0449677 C252.99314,21.0119001 252.024691,21.536009 250.554881,21.536009 C249.701687,21.536009 249.082644,21.3127774 248.71504,20.8732903 C248.03837,20.0640759 248.288898,18.6722149 248.471487,17.6558441 L248.524262,17.3576965 C248.700785,16.3194877 248.931902,15.0125519 249.140575,13.8330036 L249.315278,12.8457498 C249.424164,12.2273135 249.485432,11.6073606 249.196687,11.2637175 C249.05656,11.0965971 248.846371,11.0119753 248.571881,11.0119753 C247.351387,11.0119753 244.23676,14.7941731 241.937415,20.9542724 C241.884943,21.0953086 241.719036,21.238468 241.503387,21.238468 L239.934093,21.238468 C239.815805,21.238468 239.743012,21.1814469 239.702672,21.1335249 C239.645348,21.0655849 239.618354,20.971864 239.632306,20.8893654 C239.687204,20.5681667 241.471237,10.4611757 242.328373,5.6037661 L242.813356,2.8564407 C242.847023,2.66535934 243.037801,2.46123591 243.268918,2.46123591 L245.513669,2.46123591 C245.602537,2.46123591 245.683216,2.49945218 245.742057,2.56860544 C245.801808,2.63988182 245.828802,2.73572581 245.813333,2.82489711 L243.953171,13.2837205 L244.123021,13.3422581 C244.147892,13.295246 246.651361,8.63771355 249.775087,8.63771355 C250.802983,8.63771355 251.547594,8.90431755 251.988901,9.42994296 C252.659202,10.2294517 252.539397,11.4990812 252.360145,12.5160587 C252.163604,13.6313066 251.964333,14.7450379 251.787811,15.7332016 C251.647078,16.5220946 251.520297,17.2312188 251.42051,17.7987001 C251.299188,18.4868963 251.342561,18.9263835 251.557603,19.1829785 C251.720174,19.3767896 251.974039,19.4665675 252.356505,19.4665675 C252.848767,19.4665675 253.429897,19.2157353 254.083517,18.7210468 L254.122036,18.6916264 L254.119913,18.6440077 C254.093222,18.0759198 254.141751,17.4383753 254.263376,16.7486625 C254.263376,16.7486625 255.472648,9.82636096 255.536948,9.46027333 C255.583657,9.19518585 255.808708,9.05627273 256.006462,9.05627273 L258.222703,9.05627273 C258.326736,9.05627273 258.412268,9.09266918 258.470502,9.16182244 C258.527523,9.22915587 258.555124,9.32742629 258.541172,9.41083482 L257.257894,16.6840588 C257.246065,16.7498758 257.23272,16.8217587 257.217858,16.897888 C257.105332,17.4850841 256.95095,18.2900522 257.303086,18.7155874 C257.453221,18.8972663 257.680093,18.9894707 257.977937,18.9894707 C259.489299,18.9894707 262.610598,15.5760902 264.298787,9.40416214 C264.30273,9.38990686 264.398877,9.05536282 264.765875,9.05536282 L266.480754,9.05536282 C266.577508,9.05536282 266.663646,9.09448901 266.723397,9.16576539 C266.782845,9.23673847 266.809536,9.33045933 266.794067,9.41629429 C266.552637,10.786014 265.293623,17.9251778 265.28968,17.9482289 C265.181098,18.5936593 265.225987,19.0064557 265.430413,19.2481888 C265.574786,19.4186455 265.798018,19.5014474 266.11315,19.5014474 C266.726734,19.5014474 267.504101,19.0483116 268.026694,18.6245963 L268.053081,18.603365 L268.058844,18.5696983 C268.453139,16.3628602 269.001815,13.2615793 269.368509,11.1872849 L269.67424,9.45997003 C269.716399,9.22066337 269.90475,9.05991238 270.141934,9.05991238 L272.375159,9.05627273 C272.468274,9.05627273 272.557748,9.09661213 272.614466,9.16394557 C272.670881,9.23067239 272.691505,9.31711396 272.674824,9.41417116 C272.546223,10.1569621 272.059724,12.9409872 272.059724,12.9409872 L272.229574,12.9995248 C272.289931,12.8860892 272.357871,12.7532422 272.432787,12.6055333 C273.133116,11.2276243 274.437322,8.66288776 276.793689,8.66288776 C278.461556,8.66288776 279.327488,9.56309331 279.367221,11.3383302 C279.393002,12.4920977 279.224062,13.2703751 279.222545,13.278261 L279.395428,13.3322491 C279.414536,13.285237 281.338392,8.66228116 284.659265,8.66228116 C285.708089,8.66228116 286.387186,8.8921854 286.796343,9.38596391 C287.395368,10.1081302 287.466341,11.4675376 287.028067,13.7938774 C286.914632,14.3959353 286.719911,15.5208889 286.547937,16.5136021 C286.463619,17.0010113 286.38294,17.4644594 286.318033,17.83449 C286.196408,18.5248093 286.240084,18.9664196 286.455733,19.2233179 C286.615271,19.4134893 286.860643,19.5014474 287.228248,19.5014474 C287.960423,19.5014474 288.651349,18.9712724 289.107518,18.5721247 L289.131782,18.5511967 L289.137241,18.5193499 C289.453891,16.7210619 291.552146,4.8197259 291.898519,2.8640233 C291.940375,2.62896289 292.132669,2.46457225 292.36591,2.46457225 L294.593373,2.46457225 C294.691946,2.46457225 294.777478,2.50187861 294.834196,2.56921205 C294.892127,2.638062 294.914268,2.73147956 294.896373,2.83278301 L294.799316,3.39025531 C294.565772,4.73389094 294.233654,6.63985173 293.805996,9.03504147 C293.737449,9.41599099 293.638572,9.93979657 293.638572,9.93979657 L293.585494,10.2239922 L293.792044,10.0216886 C294.680118,9.15211672 295.896062,8.65318204 297.128082,8.65318204 C298.434108,8.65318204 299.445626,9.06870819 300.134429,9.88793163 L300.134429,9.88793163 Z M318.722703,11.7177632 C318.331441,11.248249 317.759713,11.0104588 317.024202,11.0104588 C315.221668,11.0104588 313.871359,12.4399294 313.412461,14.8339059 C313.239578,15.7350214 313.066088,17.3874202 313.844669,18.329785 C314.20378,18.7644193 314.718183,18.9846178 315.374229,18.9846178 C317.20861,18.9846178 318.734835,17.3695253 319.173109,14.9655398 C319.438196,13.5118049 319.282602,12.3883678 318.722703,11.7177632 L318.722703,11.7177632 Z M349,8.81453964 L349,10.5127374 C349,10.6234432 348.947832,10.6935064 348.904763,10.7326326 C348.844708,10.786924 348.763726,10.8166477 348.676678,10.8166477 C348.644831,10.8166477 348.612681,10.8127048 348.581138,10.8045156 C348.324543,10.7377887 348.067948,10.7056385 347.797401,10.7056385 C345.885677,10.7056385 343.535073,12.8336177 343.436196,12.9243055 L343.383421,12.9725308 L343.417391,13.0350114 C343.417391,13.0350114 347.311811,20.1629529 347.650298,20.7892751 C347.702467,20.8857257 347.700343,20.9955217 347.644232,21.0892426 C347.589334,21.1814469 347.492884,21.238468 347.392793,21.238468 L345.027631,21.238468 C344.535369,21.238468 344.503522,21.1799304 344.295152,20.7977677 L344.155936,20.5432958 C343.356124,19.0792486 341.990044,16.5791157 341.133514,15.003756 L341.079222,14.9039691 L340.497183,15.4083632 C340.253023,15.6191594 340.111987,15.7410875 339.896641,15.9339887 L339.87359,15.9552199 C339.87359,15.9552199 339.534496,17.8972739 339.396797,18.6892 C339.212994,19.7462135 339.073778,20.5469354 339.019183,20.8447797 C338.971565,21.1028912 338.748333,21.238468 338.552096,21.238468 L336.313411,21.238468 C336.227272,21.238468 336.14356,21.1981286 336.08381,21.1271555 C336.024362,21.0555758 335.998885,20.9664045 336.013746,20.8814795 L336.432912,18.5260225 L336.24729,18.6661489 C333.914581,20.4359263 331.951599,21.5329759 329.377157,21.5329759 C327.210658,21.5329759 325.540971,20.8153593 324.795754,19.5633214 L324.73297,19.4577717 L324.649865,19.5490661 C324.632273,19.5687808 322.82064,21.536009 320.612588,21.536009 C319.543139,21.536009 318.513423,21.3282459 318.227104,19.8232527 L318.193741,19.6494596 L318.071813,19.7771505 C316.94413,20.9591252 315.680566,21.5329759 314.20833,21.5329759 C312.711526,21.5329759 311.501647,20.7944313 310.972382,19.5575586 L310.922034,19.4395734 L310.827403,19.5266216 C309.827107,20.4429023 308.261756,21.536009 306.483183,21.536009 C305.225382,21.536009 304.304552,21.1987352 303.746777,20.5338934 C303.208412,19.8924059 303.019454,18.9300231 303.214782,17.823571 L304.300913,11.6662015 C304.356417,11.350159 304.401609,11.1190416 304.401609,11.1187383 L304.423447,11.0104588 L302.488369,11.0104588 C302.41224,11.0104588 302.330045,10.9689062 302.273934,10.902786 C302.213879,10.8315096 302.189009,10.7408218 302.205084,10.6474042 C302.267564,10.2725208 302.418609,9.41477777 302.418913,9.41477777 C302.456219,9.20034202 302.685213,9.05627273 302.875688,9.05627273 L304.760418,9.05627273 L305.547188,4.60013398 C305.586921,4.37629581 305.784675,4.20735562 306.0073,4.20735562 L308.246288,4.20735562 C308.335459,4.20735562 308.420081,4.24830163 308.479528,4.31957801 C308.537156,4.38812466 308.562937,4.47608275 308.548985,4.55463842 C308.457994,5.06327881 307.775864,8.94950981 307.775864,8.94950981 L307.757362,9.05627273 L310.847421,9.05627273 C310.939322,9.05627273 311.02273,9.09509561 311.082481,9.16546208 C311.139199,9.23370543 311.165586,9.32196682 311.151331,9.40203901 C311.113418,9.61556486 310.945995,10.5946294 310.945995,10.5946294 C310.895343,10.8815547 310.662709,11.0104588 310.454339,11.0104588 L307.416145,11.0104588 L306.233261,17.6892075 C306.126195,18.2982414 306.2093,18.7704854 306.480453,19.0935039 C306.697619,19.3528286 307.038229,19.5014474 307.413719,19.5014474 C308.869274,19.5014474 309.8632,18.8093082 310.48376,18.2885357 L310.523492,18.2554756 L310.515303,18.2045206 C310.386096,17.4125945 310.279939,16.6161188 310.400958,15.5824596 C310.792523,12.2376258 312.747316,8.66288776 317.059385,8.66288776 C319.033286,8.66288776 319.737254,9.89278449 319.858272,10.1393704 L319.979594,10.386563 L320.155206,9.43176278 C320.185537,9.23279552 320.398759,9.05445291 320.603186,9.05445291 L322.604991,9.05445291 C322.695072,9.05445291 322.777267,9.09297249 322.835805,9.16273235 C322.894343,9.23279552 322.92073,9.32681968 322.904958,9.41326125 L321.423623,17.8335801 C321.289562,18.593356 321.31959,19.0219242 321.52432,19.2654771 C321.65929,19.4265314 321.866143,19.5014474 322.175513,19.5014474 C323.29986,19.5014474 324.123633,18.3683046 324.158209,18.3200793 L324.183384,18.2845927 L324.171858,18.2427368 C323.939527,17.407135 323.903434,16.0349888 324.086326,14.9804017 C324.762087,11.0838583 327.312872,8.66288776 330.743237,8.66288776 C332.397153,8.66288776 333.685587,9.16849512 334.46902,10.1245086 C335.276112,11.1096391 335.382875,12.3644068 335.213631,13.2103209 C335.156913,13.4936067 334.884243,13.7238142 334.605507,13.7238142 L332.585201,13.7238142 C332.494513,13.7238142 332.411408,13.6865078 332.35105,13.6179612 C332.293726,13.5527509 332.265822,13.4675225 332.275831,13.3895735 L332.347107,12.8433234 C332.417777,12.3098121 332.304645,11.8560697 332.020753,11.531838 C331.721695,11.1909246 331.254304,11.0104588 330.669231,11.0104588 C328.951622,11.0104588 327.486058,12.6037134 327.022003,14.9755488 C326.772991,16.2500312 326.934349,17.2460807 327.502437,17.9360967 C328.078107,18.6349086 329.063541,18.9894707 330.431744,18.9894707 C333.03955,18.9894707 334.839658,18.043163 336.739249,16.6221849 L336.76776,16.6006503 L339.18782,2.88161491 C339.235742,2.62259351 339.4247,2.46123591 339.680386,2.46123591 L341.893593,2.46244913 C341.983978,2.46244913 342.068296,2.50187861 342.125924,2.57012196 C342.185371,2.64109504 342.209029,2.73390599 342.191741,2.83035658 C342.057984,3.59286222 341.864476,4.68475573 341.638818,5.96014801 C341.267574,8.05476374 340.808979,10.6437646 340.38314,13.0771706 L340.331579,13.3716785 L340.538432,13.1557263 C341.369787,12.2882775 342.894495,10.6974493 344.691267,9.3526005 C346.083734,8.3098422 347.204138,8.09085689 347.898704,8.09085689 C348.598426,8.09085689 349,8.35473115 349,8.81453964 L349,8.81453964 Z M240.927413,4.73267772 C241.034479,4.12607022 241.185828,3.27348336 241.243152,2.96290032 C241.258014,2.88191822 241.232537,2.79244361 241.175212,2.72359366 C241.116068,2.65231728 241.030536,2.61167457 240.940758,2.61167457 L232.208947,2.61167457 C228.455563,2.61167457 226.746143,4.96106545 226.746143,7.14424587 C226.746143,7.3568618 226.763734,7.8821839 226.928732,8.15879693 C227.023666,8.31894131 227.168645,8.4068994 227.336372,8.4068994 C227.379441,8.4068994 227.42433,8.40113663 227.469826,8.38961108 C227.675769,8.33865605 228.017289,8.25130457 228.375491,8.16031344 L228.784344,8.05597695 C228.842578,8.04111507 229.032143,7.97802789 229.032143,7.78573331 C229.032143,6.57555133 229.601141,5.13334198 232.312677,5.13334198 L233.734868,5.13334198 L230.931735,21.0285818 C230.916873,21.1135069 230.94235,21.2029815 231.002404,21.2742578 C231.061852,21.3452309 231.144957,21.3855703 231.231399,21.3855703 L233.470387,21.3855703 C233.666624,21.3855703 233.889856,21.2502969 233.937171,20.9924887 L236.730599,5.13334198 L240.467301,5.13334198 C240.692959,5.13334198 240.88677,4.96440179 240.927413,4.73267772 L240.927413,4.73267772 Z M213.017402,0.182818113 C212.775365,-0.0598248905 212.394719,-0.061644713 212.151166,0.181604898 C211.997694,0.336289812 211.951592,0.386941539 211.852109,0.485818563 C210.633737,1.70540296 210.764765,3.2279878 211.758084,4.22130759 C212.258839,4.722972 212.099604,5.33807202 211.695604,5.65563105 C211.111744,6.11452963 208.966477,7.77966723 208.068698,8.47605265 C205.890067,6.90948876 202.914354,6.94072905 200.775759,8.5846354 C200.393596,8.87702021 200.426656,9.38353748 200.700539,9.65711747 C200.766356,9.72172117 211.275225,20.2318028 211.340435,20.2961032 C211.614318,20.5702898 212.119926,20.6033499 212.413221,20.2217938 C214.056217,18.0831991 214.088367,15.1077892 212.521803,12.9291584 C213.217885,12.0313793 214.88363,9.88489859 215.342225,9.30225208 C215.659784,8.89734157 216.299148,8.7623714 216.775335,9.2397715 C217.769868,10.2333946 219.292453,10.3641185 220.510824,9.14483743 C220.610611,9.04626371 220.660656,9.00016154 220.815038,8.84577993 C221.058287,8.60192371 221.057681,8.22279402 220.815038,7.9792411 L213.017402,0.182818113 L213.017402,0.182818113 Z M203.756892,14.7826476 L206.21,17.2372849 C206.21,17.2372849 202.749214,19.8893729 198.629677,23.135633 C198.05005,23.5924084 197.284894,24.1771781 197.052376,23.9442408 C196.819858,23.7116068 197.410095,22.9803415 197.868462,22.3846529 C200.575612,18.8663293 203.756892,14.7826476 203.756892,14.7826476 L203.756892,14.7826476 Z" id="TT_lockup_horizontal_ttOrange-Copy"></path>
                </g>
            </g>
        </g>
    </g>
</svg>